<?xml version="1.0" encoding="utf-8"?>
<!-- Generator: Adobe Illustrator 24.1.0, SVG Export Plug-In . SVG Version: 6.00 Build 0)  -->
<svg version="1.1" id="레이어_1" xmlns="http://www.w3.org/2000/svg" xmlns:xlink="http://www.w3.org/1999/xlink" x="0px"
	 y="0px" viewBox="0 0 477.9 477.9" style="enable-background:new 0 0 477.9 477.9;" xml:space="preserve">
<style type="text/css">
	.st0{fill:#BFDDFF;}
	.st1{fill:#0050FF;}
	.st2{fill:#0040C4;}
</style>
<g>
	<rect class="st0" width="477.9" height="477.9"/>
	<path class="st1" d="M314.6,170.2H163.3c-11.4,0-20.6,9.2-20.6,20.6v96.2c0,11.4,9.2,20.6,20.6,20.6h151.2
		c11.4,0,20.6-9.2,20.6-20.6v-96.2C335.2,179.4,325.9,170.2,314.6,170.2z M321.4,249.8l-43.3-43.3c-2.7-2.7-7-2.7-9.7,0l-57,57
		l-22.6-22.6c-2.7-2.7-7-2.7-9.7,0l-22.6,22.6v-72.8c0-3.8,3.1-6.9,6.9-6.9h151.2c3.8,0,6.9,3.1,6.9,6.9L321.4,249.8L321.4,249.8z"
		/>
	<circle class="st2" cx="204.6" cy="218.3" r="20.6"/>
</g>
</svg>
