<?xml version="1.0" standalone="no"?>
<!DOCTYPE svg PUBLIC "-//W3C//DTD SVG 20010904//EN"
 "http://www.w3.org/TR/2001/REC-SVG-20010904/DTD/svg10.dtd">
<svg version="1.0" xmlns="http://www.w3.org/2000/svg"
 width="260.000000pt" height="260.000000pt" viewBox="0 0 260.000000 260.000000"
 preserveAspectRatio="xMidYMid meet">
<metadata>
Created by potrace 1.11, written by Peter Selinger 2001-2013
</metadata>
<g transform="translate(0.000000,260.000000) scale(0.100000,-0.100000)"
fill="#000000" stroke="none">
<path d="M1125 2504 c-293 -52 -547 -222 -711 -475 -148 -229 -201 -538 -134
-794 27 -102 114 -280 182 -370 70 -94 226 -247 326 -320 270 -197 690 -408
914 -459 27 -6 27 -6 -31 116 -32 68 -70 146 -85 175 -14 29 -26 56 -26 61 0
5 26 16 58 26 604 188 905 857 646 1442 -111 252 -362 475 -634 562 -155 51
-347 64 -505 36z m-1 -905 c7 -17 44 -130 82 -250 38 -120 71 -219 74 -219 3
0 22 55 43 123 21 67 57 179 79 250 l40 127 99 0 99 0 0 -360 0 -360 -70 0
-70 0 0 263 c0 148 -4 255 -9 247 -5 -8 -44 -127 -87 -263 l-78 -248 -59 3
-59 3 -82 260 -81 260 -3 -262 -2 -263 -65 0 -65 0 0 353 c0 195 3 357 7 360
3 4 49 7 100 7 l94 0 13 -31z m997 -165 c57 -33 88 -89 101 -180 6 -44 9 -88
5 -97 -6 -15 -26 -17 -176 -17 l-170 0 9 -29 c14 -50 31 -72 65 -87 44 -18
148 -17 200 1 56 21 56 20 53 -32 -3 -47 -4 -48 -53 -67 -68 -26 -202 -28
-267 -3 -121 47 -179 208 -132 368 19 66 91 141 150 157 59 17 175 9 215 -14z"/>
<path d="M1931 1343 c-22 -18 -53 -92 -44 -105 2 -5 50 -8 105 -8 l101 0 -6
42 c-7 56 -43 88 -96 88 -22 0 -48 -8 -60 -17z"/>
</g>
</svg>
