<?xml version="1.0" standalone="no"?>
<!DOCTYPE svg PUBLIC "-//W3C//DTD SVG 20010904//EN"
 "http://www.w3.org/TR/2001/REC-SVG-20010904/DTD/svg10.dtd">
<svg version="1.0" xmlns="http://www.w3.org/2000/svg"
 width="260.000000pt" height="260.000000pt" viewBox="0 0 260.000000 260.000000"
 preserveAspectRatio="xMidYMid meet">
<metadata>
Created by potrace 1.11, written by Peter Selinger 2001-2013
</metadata>
<g transform="translate(0.000000,260.000000) scale(0.100000,-0.100000)"
fill="#000000" stroke="none">
<path d="M1880 1310 l0 -980 135 0 135 0 -2 978 -3 977 -132 3 -133 3 0 -981z"/>
<path d="M1480 1940 l0 -310 -110 0 -110 0 0 -125 0 -125 110 0 110 0 0 -480
0 -480 130 0 130 0 0 915 0 915 -130 0 -130 0 0 -310z"/>
<path d="M502 1978 l3 -113 154 -3 154 -3 -6 -152 c-11 -332 -102 -536 -312
-706 l-73 -58 70 -89 c38 -49 73 -93 78 -98 5 -5 23 1 43 13 47 29 184 174
230 243 42 65 107 195 107 218 0 8 13 -15 29 -52 41 -96 114 -202 201 -289
115 -117 105 -117 195 4 l76 102 -33 24 c-18 14 -69 61 -114 106 -126 125
-181 255 -204 484 -5 57 -10 136 -10 177 l0 73 143 3 142 3 3 113 3 112 -441
0 -441 0 3 -112z"/>
</g>
</svg>
